<?xml version="1.0" standalone="no"?>
<!DOCTYPE svg PUBLIC "-//W3C//DTD SVG 20010904//EN"
 "http://www.w3.org/TR/2001/REC-SVG-20010904/DTD/svg10.dtd">
<svg version="1.0" xmlns="http://www.w3.org/2000/svg"
 width="1280.000000pt" height="640.000000pt" viewBox="0 0 1280.000000 640.000000"
 preserveAspectRatio="xMidYMid meet">
<g transform="translate(0.000000,640.000000) scale(0.100000,-0.100000)"
fill="#000000" stroke="none">
<path d="M10220 4515 c0 -80 -11 -110 -29 -77 -6 11 -11 33 -11 49 0 22 -2 25
-10 13 -5 -8 -10 -35 -10 -60 0 -51 -6 -62 -37 -79 -13 -6 -23 -19 -23 -28 0
-8 -13 -30 -28 -48 l-29 -32 -7 -339 c-20 -965 -35 -1524 -41 -1534 -16 -25
-23 8 -29 146 -4 80 -10 152 -13 160 -8 22 -115 19 -136 -4 -30 -33 -37 -73
-29 -165 6 -63 5 -91 -4 -98 -16 -13 -80 16 -95 43 -9 16 -15 141 -20 408 -16
796 -20 890 -38 899 -9 5 -53 12 -98 16 -80 7 -83 7 -93 -17 -6 -13 -31 -36
-56 -52 -41 -26 -49 -37 -44 -61 2 -9 3 -744 1 -774 -1 -10 -9 -12 -31 -8 -22
5 -36 0 -59 -19 -28 -23 -37 -25 -115 -23 -58 1 -91 -2 -101 -11 -15 -12 -15
-49 -9 -334 6 -269 5 -323 -7 -333 -8 -6 -41 -13 -74 -15 -58 -3 -60 -2 -63
23 -5 39 -41 67 -101 79 -106 20 -105 19 -112 150 -4 63 -10 297 -14 520 l-7
405 -34 70 c-18 39 -47 84 -63 99 -27 26 -34 28 -56 18 -14 -6 -32 -28 -41
-49 -9 -21 -27 -59 -40 -86 l-24 -47 0 -380 c0 -336 -2 -381 -16 -387 -8 -3
-20 -1 -27 6 -9 9 -21 342 -26 798 -1 62 -1 63 -37 78 -70 29 -153 14 -189
-34 -19 -25 -20 -39 -17 -377 3 -286 1 -352 -10 -361 -7 -7 -34 -13 -58 -15
l-45 -3 -2 -80 c-1 -44 -2 -86 -2 -92 -2 -23 -31 -14 -41 12 l-10 25 -245 0
c-151 0 -254 4 -266 10 -17 10 -19 22 -19 116 0 105 0 106 -30 132 -29 26 -30
29 -30 117 0 49 -4 96 -8 103 -37 57 -141 82 -177 42 -10 -11 -24 -20 -31 -20
-22 0 -44 -43 -44 -85 0 -43 -13 -65 -39 -65 -9 0 -28 -16 -43 -34 -26 -32
-28 -42 -28 -126 0 -73 -3 -92 -16 -97 -36 -14 -44 17 -51 199 -5 150 -9 177
-22 181 -9 2 -25 28 -35 58 -10 30 -22 58 -26 62 -4 5 -17 -19 -30 -52 -12
-34 -28 -61 -35 -61 -8 0 -14 -34 -19 -111 -5 -89 -10 -117 -26 -137 -11 -13
-20 -31 -20 -38 0 -18 -26 -23 -141 -26 -131 -4 -133 -6 -148 -151 -6 -62 -13
-150 -15 -197 -3 -83 -24 -163 -49 -186 -7 -6 -31 -9 -54 -7 -32 4 -42 10 -47
26 -3 12 -6 142 -6 288 0 244 -2 267 -18 282 -15 13 -25 15 -53 7 -46 -13 -62
-13 -85 4 -18 14 -19 33 -24 373 l-5 358 -60 13 c-73 15 -159 1 -175 -28 -6
-11 -10 -135 -10 -307 -1 -330 -12 -403 -59 -403 -26 0 -31 -42 -31 -267 0
-105 -4 -203 -10 -217 -12 -32 -47 -34 -83 -6 -14 11 -39 20 -56 20 -37 0 -40
10 -43 125 l-3 79 -48 14 c-36 10 -51 20 -58 39 -6 16 -7 91 -3 192 l7 166
-25 30 c-24 28 -25 39 -32 190 -4 88 -10 178 -14 200 l-7 40 -86 3 -86 3 -12
-57 c-6 -32 -11 -109 -11 -171 0 -63 -5 -123 -10 -134 -9 -16 -22 -19 -88 -19
-112 0 -122 9 -122 112 0 109 -15 156 -56 175 -41 20 -72 11 -108 -33 -26 -32
-29 -42 -33 -142 -5 -109 -19 -152 -48 -152 -8 0 -17 -12 -20 -27 -12 -58 -13
-58 -151 -61 -116 -2 -131 0 -156 18 -15 11 -31 20 -36 20 -5 0 -26 14 -47 30
-47 38 -92 40 -124 6 -13 -13 -37 -27 -55 -30 l-33 -6 -7 -92 c-3 -50 -6 -165
-6 -255 0 -144 -2 -164 -17 -170 -11 -4 -22 1 -31 15 -8 12 -25 22 -38 22 -57
0 -71 14 -78 82 -4 35 -8 90 -10 123 -2 52 -20 172 -32 213 -8 27 -47 7 -69
-34 -31 -58 -36 -79 -46 -164 -24 -222 -23 -220 -70 -220 -41 0 -52 34 -44
132 4 42 4 85 1 96 -4 11 -28 36 -53 56 -76 59 -127 46 -186 -47 -10 -15 -26
-31 -35 -34 -25 -10 -32 -24 -32 -69 0 -50 -30 -85 -58 -68 -14 9 -18 30 -20
112 -2 90 -5 102 -22 107 -11 4 -23 18 -26 33 -21 96 -37 117 -87 110 -43 -7
-55 -2 -72 33 -9 16 -23 29 -32 29 -8 0 -36 -21 -61 -47 l-44 -48 -4 -105 c-3
-134 -14 -290 -20 -312 -3 -10 -11 -18 -19 -18 -7 0 -23 -20 -35 -46 -12 -25
-33 -52 -46 -61 -16 -10 -24 -25 -24 -43 0 -16 -7 -36 -16 -44 -21 -22 -71
-21 -82 2 -5 10 -1 288 9 658 26 967 32 1345 25 1416 l-7 64 -48 17 c-30 10
-79 17 -127 17 -104 0 -122 6 -139 45 -12 29 -20 35 -70 45 -31 6 -103 10
-160 8 -85 -2 -107 -6 -124 -23 -19 -16 -26 -17 -53 -7 -24 9 -37 8 -63 -2
-18 -8 -51 -17 -73 -21 -23 -4 -45 -12 -49 -18 -4 -7 -10 -120 -14 -252 -7
-272 -12 -293 -90 -357 l-41 -34 -8 -175 c-5 -96 -14 -329 -20 -519 -11 -381
-18 -488 -31 -496 -5 -3 -9 5 -9 18 0 47 -23 63 -92 64 -35 1 -69 2 -77 3 -11
1 -13 26 -9 141 4 95 2 144 -6 154 -6 8 -37 16 -71 20 -33 3 -94 12 -135 21
-137 29 -249 37 -375 28 l-120 -8 -10 -85 -10 -85 -35 -5 c-21 -4 -48 0 -67 9
-28 12 -36 13 -58 1 -25 -14 -38 -14 -150 -8 l-60 4 -5 49 c-6 55 -15 75 -33
75 -22 0 -77 67 -77 93 0 34 -22 49 -67 45 -37 -3 -38 -4 -46 -53 -4 -27 -6
-340 -3 -695 l6 -645 107 -6 c142 -8 12406 -8 12543 0 l105 6 3 449 c1 270 -2
454 -7 459 -14 14 -61 -1 -61 -18 0 -24 -117 -20 -155 5 -16 11 -45 20 -63 20
-18 0 -45 6 -61 14 -34 18 -153 6 -179 -17 -9 -9 -30 -18 -47 -22 -71 -16 -67
-9 -59 -95 6 -71 4 -80 -17 -109 -16 -22 -31 -31 -51 -31 -15 0 -28 3 -29 8
-1 10 -5 35 -19 112 -7 42 -18 70 -30 80 -16 12 -20 34 -25 125 -12 229 -13
232 -49 253 -30 18 -34 26 -40 76 l-7 55 -47 -5 c-71 -9 -71 -8 -74 -70 -2
-45 -7 -59 -23 -68 -11 -6 -22 -13 -25 -14 -3 -2 -5 -90 -5 -195 l0 -192 -70
3 c-38 2 -76 9 -82 14 -9 7 -13 39 -13 92 0 91 -4 100 -41 109 -24 6 -27 12
-33 68 -3 34 -6 98 -6 143 0 89 -32 211 -60 226 -9 5 -47 10 -85 12 l-70 3 -5
-100 -5 -100 -65 -5 -65 -5 -17 -55 c-31 -97 -35 -102 -60 -89 -13 7 -28 19
-35 28 -11 15 -12 15 -13 0 0 -9 -12 -24 -26 -34 -25 -16 -26 -16 -60 17 l-34
33 0 135 c-1 129 -9 253 -29 423 -9 82 -45 170 -72 175 -25 5 -68 -37 -79 -76
-16 -60 -28 -70 -101 -77 l-66 -7 -23 64 c-13 34 -32 75 -43 89 -28 39 -36 86
-47 284 -26 469 -22 440 -68 464 -59 30 -70 49 -81 141 -14 109 -31 128 -31
35z"/>
</g>
</svg>
